<svg xmlns="http://www.w3.org/2000/svg" x="0" y="0" viewBox="0 0 24 24" style="" xml:space="preserve">
<style type="text/css">.st0 { fill: rgb(51, 51, 51); }</style>
<path class="st0" d="M12 19.5c-2.861 0-5.489-1.238-7.598-3.58-1.567-1.74-2.298-3.478-2.328-3.55a.964.964 0 0 1 0-.74c.03-.072.761-1.81 2.328-3.55C6.512 5.739 9.14 4.5 12 4.5s5.489 1.238 7.598 3.58c1.567 1.74 2.298 3.478 2.328 3.55a.964.964 0 0 1 0 .74c-.03.072-.761 1.81-2.328 3.55-2.11 2.342-4.737 3.58-7.598 3.58zM3.92 12c.279.549.889 1.626 1.853 2.686 1.774 1.95 3.87 2.94 6.227 2.94 2.358 0 4.453-.99 6.227-2.94.964-1.06 1.574-2.137 1.853-2.686-.278-.548-.888-1.626-1.853-2.686-1.774-1.95-3.87-2.94-6.227-2.94-2.358 0-4.453.99-6.227 2.94C4.81 10.374 4.2 11.45 3.921 12zm-1.01 0z"/>
<path class="st0" d="M12 15.41c-2.005 0-3.636-1.632-3.636-3.637S9.994 8.136 12 8.136s3.636 1.632 3.636 3.637-1.63 3.636-3.636 3.636zm0-5.455c-1.002 0-1.818.815-1.818 1.818 0 1.002.816 1.818 1.818 1.818 1.003 0 1.818-.815 1.818-1.817 0-1.003-.815-1.818-1.818-1.818z"/>
</svg>