<svg xmlns="http://www.w3.org/2000/svg" x="0" y="0" viewBox="0 0 24 24" style="" xml:space="preserve">
<style type="text/css">.st0 { fill: rgb(51, 51, 51); }</style>
<path class="st0" d="M11.935 15.705c-.044 0-.087-.001-.131-.003a3.612 3.612 0 0 1-2.532-1.155c-1.367-1.467-1.286-3.772.18-5.14a.91.91 0 1 1 1.24 1.33c-.355.332-.56.782-.577 1.267-.017.485.156.948.487 1.304.33.355.78.56 1.266.577a1.806 1.806 0 0 0 1.395-.578.91.91 0 0 1 1.329 1.24 3.703 3.703 0 0 1-.18.182 3.61 3.61 0 0 1-2.477.975z"/>
<path class="st0" d="M19.572 15.346a.91.91 0 0 1-.708-1.48c.467-.58.874-1.206 1.215-1.867-.28-.533-.89-1.577-1.853-2.605-1.774-1.89-3.87-2.85-6.227-2.85-.346.001-.697.023-1.042.066a.91.91 0 0 1-.225-1.803 10.44 10.44 0 0 1 1.265-.08c2.863 0 5.49 1.2 7.6 3.473 1.567 1.687 2.298 3.371 2.328 3.442a.91.91 0 0 1-.011.743 12.883 12.883 0 0 1-1.634 2.621.908.908 0 0 1-.708.34z"/>
<path class="st0" d="M12.024 19.273h-.026c-2.86 0-5.487-1.2-7.596-3.473-1.567-1.687-2.298-3.37-2.328-3.442a.91.91 0 0 1 .013-.747A13.218 13.218 0 0 1 6.588 6.35.91.91 0 1 1 7.612 7.85a11.398 11.398 0 0 0-3.69 4.154c.28.532.889 1.575 1.851 2.6 1.774 1.892 3.87 2.85 6.227 2.85h.022a7.924 7.924 0 0 0 4.377-1.313.91.91 0 1 1 1 1.519 9.736 9.736 0 0 1-5.376 1.613z"/>
<path class="st0" d="M21.09 22a.906.906 0 0 1-.642-.266L2.266 3.552a.91.91 0 1 1 1.286-1.286l18.182 18.182A.91.91 0 0 1 21.09 22z"/>
</svg>