<svg xmlns="http://www.w3.org/2000/svg" x="0" y="0" viewBox="0 0 64 22" style="" xml:space="preserve">
<polygon fill="#333333" points="4.549 13.292 4.549 21.67 0 21.67 0 .33 4.549 .33 4.549 9.268 8.155 9.268 8.155 .33 12.704 .33 12.704 21.67 8.155 21.67 8.155 13.292"/>
<path fill="#333333" d="M24.31 0h-4.321c-2.687 0-4.03 1.451-4.03 4.354v13.292C15.96 20.55 17.303 22 19.989 22h4.32c2.686 0 4.029-1.451 4.029-4.354V4.354C28.338 1.45 26.995 0 24.309 0zm-.52 18.174c0 .176-.065.33-.195.462-.108.132-.25.198-.422.198h-2.047c-.174 0-.325-.066-.455-.198-.108-.132-.162-.286-.162-.462V3.794c0-.177.055-.33.163-.463.13-.13.282-.197.456-.197h2.047c.173 0 .314.066.422.198.13.133.195.287.195.463v14.38z"/>
<path fill="#333333" d="M36.214 21.67h-4.55V4.354c0-2.903 1.344-4.354 4.03-4.354h2.404c1.581 0 2.707.528 3.38 1.583C42.104.528 43.23 0 44.855 0h2.404c2.686 0 4.03 1.451 4.03 4.354V21.67h-4.55V3.958c0-.176-.065-.33-.195-.462-.108-.132-.249-.198-.422-.198H44.37c-.175 0-.326.066-.456.198-.109.132-.163.286-.163.462V21.67h-4.547V3.958c0-.176-.065-.33-.195-.462-.109-.132-.25-.198-.423-.198h-1.754c-.172 0-.324.066-.454.198-.108.132-.162.286-.162.462V21.67z"/>
<polygon fill="#333333" points="58.964 17.844 64 17.844 64 21.67 54.415 21.67 54.415 .33 64 .33 64 4.09 58.964 4.09 58.964 9.103 63.675 9.103 63.675 12.732 58.964 12.732"/>
</svg>