<svg xmlns="http://www.w3.org/2000/svg" x="0" y="0" viewBox="0 0 24 24" style="" xml:space="preserve">
<style type="text/css">.st0 { fill: rgb(17, 17, 17); }</style>
<path class="st0" d="M4.588 2.403a1.49 1.49 0 0 0-2.112.074 1.504 1.504 0 0 0 0 2.046l7.412 7.44-7.412 7.44c-.604.564-.638 1.513-.075 2.12a1.49 1.49 0 0 0 2.188 0L12 14.083l7.412 7.44a1.49 1.49 0 0 0 2.112.074c.604-.564.638-1.513.075-2.12a1.498 1.498 0 0 0-.076-.074l-7.412-7.44 7.412-7.44c.563-.607.53-1.556-.074-2.12a1.49 1.49 0 0 0-2.038 0L12 9.843l-7.412-7.44z"/>
</svg>