<?xml version="1.0" encoding="UTF-8"?>
<svg id="Layer_1" xmlns="http://www.w3.org/2000/svg" version="1.1" viewBox="0 0 24 24">
<path fill="#fa0" d="M12,0C5.4,0,0,5.4,0,12s5.4,12,12,12,12-5.4,12-12S18.6,0,12,0ZM13.8,18.2c-.2.3-.5.6-.8.8-.3.2-.7.3-1.1.3s-.7,0-1.1-.3c-.3-.2-.6-.5-.8-.8-.2-.3-.3-.7-.3-1.1,0-.4,0-.7.3-1.1h0c.2-.3.5-.6.8-.8.3-.2.7-.3,1.1-.3s.7,0,1.1.3c.3.2.6.5.8.8.2.3.3.7.3,1.1s0,.8-.3,1.1ZM14,12.3c0,.5-.4,1-.9,1h0s-2.1,0-2.1,0c-.5,0-.9-.4-.9-1l-.2-7.2c0-.6.4-1,.9-1h2.6c.5,0,1,.5.9,1l-.2,7.2Z"/>
</svg>