<svg version="1.1" id="Layer_1" xmlns="http://www.w3.org/2000/svg" x="0" y="0" viewBox="0 0 24 24" style="" xml:space="preserve">
<path fill="#111111" d="M2 3.4v17.1c0 .8.697 1.5 1.493 1.5h17.014c.796 0 1.493-.7 1.493-1.5v-14c0-.2-.1-.3-.2-.5l-.099-.1h.001l-3.58-3.6-.2-.1c-.1-.1-.298-.2-.497-.2H3.493C2.697 2 2 2.6 2 3.4zm1.79.4H6.48v4c0 .8.696 1.5 1.492 1.5h7.96c.796 0 1.493-.7 1.493-1.5V4.2l2.686 2.7v13.2h-1.792v-6.7c0-.8-.696-1.5-1.492-1.5H7.075c-.796 0-1.493.7-1.493 1.5v6.7h-1.79V3.8zm4.578 0h3.582v1.7c0 .4.299.7.697.7h.398c.398 0 .696-.3.696-.7V3.8h1.792v3.6H8.368V3.8zm-.895 10h9.054v6.4H7.473v-6.4z"/>
</svg>