<svg xmlns="http://www.w3.org/2000/svg" x="0" y="0" viewBox="0 0 24 24" style="" xml:space="preserve">
<style type="text/css">.st0 { fill: rgb(17, 17, 17); }</style>
<path class="st0" d="M13.719 18.25h.936a.47.47 0 0 0 .47-.469V9.345a.47.47 0 0 0-.47-.47h-.937a.47.47 0 0 0-.47.47v8.437a.47.47 0 0 0 .469.47zm6.405-13.125h-3.22L15.579 2.91A1.874 1.874 0 0 0 13.969 2h-3.94a1.875 1.875 0 0 0-1.607.91L7.094 5.125h-3.22a.625.625 0 0 0-.624.625v.625A.625.625 0 0 0 3.875 7H4.5v13.125A1.875 1.875 0 0 0 6.375 22h11.25a1.875 1.875 0 0 0 1.875-1.875V7h.625a.625.625 0 0 0 .625-.625V5.75a.625.625 0 0 0-.625-.625zM9.963 3.99a.234.234 0 0 1 .201-.115h3.672a.235.235 0 0 1 .201.114l.682 1.135H9.28l.683-1.136zm7.662 16.135H6.375V7h11.25v13.125zM9.344 18.25h.937a.47.47 0 0 0 .47-.469V9.345a.47.47 0 0 0-.469-.47h-.936a.47.47 0 0 0-.47.47v8.437a.47.47 0 0 0 .47.47z"/>
</svg>