<svg version="1.1" id="Flat" xmlns="http://www.w3.org/2000/svg" x="0" y="0" viewBox="0 0 24 24" style="" xml:space="preserve">
<style type="text/css">.st0 { fill: rgb(17, 17, 17); }</style>
<path class="st0" d="m21.009 10.358-.049.008a1.113 1.113 0 0 1-.113.006h-4.612c-.636 0-1.153-.538-1.153-1.2 0-.663.517-1.2 1.153-1.2h1.829L16.77 6.626c-2.85-2.968-7.474-2.968-10.325 0s-2.852 7.78 0 10.748 7.474 2.968 10.326 0a1.12 1.12 0 0 1 1.631 0c.452.469.452 1.228.001 1.697l.001.001c-3.75 3.906-9.834 3.906-13.586.001s-3.752-10.236 0-14.141S14.65 1.023 18.4 4.928l1.294 1.345V4.372c0-.663.516-1.2 1.153-1.2S22 3.709 22 4.372v4.8c0 .039-.002.079-.006.118-.001.017-.004.033-.007.05-.003.022-.005.044-.01.066-.003.02-.008.038-.013.057-.004.02-.008.038-.014.057-.005.02-.012.037-.018.055l-.02.056-.022.051c-.009.02-.017.04-.026.057-.008.016-.018.031-.027.047l-.031.054-.035.05-.031.044a1.19 1.19 0 0 1-.073.082l-.005.006-.005.005a1.18 1.18 0 0 1-.079.074c-.014.012-.03.023-.045.034l-.045.035-.054.033-.043.027c-.017.01-.036.018-.054.027l-.047.023-.056.02-.052.02-.055.014-.054.014c-.022.005-.043.007-.064.01z"/>
</svg>