<svg width="20" height="20" viewBox="0 0 20 20" fill="none" xmlns="http://www.w3.org/2000/svg">
<rect x="20" width="20" height="20" rx="10" transform="rotate(90 20 0)" fill="#D8D8D8"/>
<path d="M13.9355 4.93555C14.248 4.62332 14.7541 4.62319 15.0664 4.93555C15.3788 5.2479 15.3786 5.75397 15.0664 6.06641L11.1309 10.002L15.0645 13.9355C15.3769 14.248 15.3769 14.754 15.0645 15.0664C14.752 15.3788 14.246 15.3788 13.9336 15.0664L10 11.1328L6.06641 15.0664C5.75399 15.3788 5.24797 15.3788 4.93555 15.0664C4.62313 14.754 4.62313 14.248 4.93555 13.9355L8.86914 10.002L4.93359 6.06641C4.62137 5.75397 4.62124 5.2479 4.93359 4.93555C5.24595 4.62319 5.75202 4.62332 6.06445 4.93555L10 8.87109L13.9355 4.93555Z" fill="#555555"/>
</svg>
