<svg xmlns="http://www.w3.org/2000/svg" version="1.1" viewBox="0 0 24 24">
<path fill="#333333" d="M13.548 1.548C13.548.692 12.856 0 12 0s-1.548.692-1.548 1.548v10.84c0 .856.692 1.547 1.548 1.547s1.548-.691 1.548-1.548V1.548zM6.556 5.835c.659-.546.746-1.524.199-2.182s-1.524-.745-2.182-.198C2.018 5.584.387 8.797.387 12.387.387 18.798 5.59 24 12 24s11.613-5.202 11.613-11.613c0-3.59-1.636-6.803-4.19-8.932-.658-.547-1.636-.455-2.183.198s-.455 1.636.199 2.182c1.88 1.563 3.071 3.92 3.071 6.552.001 4.703-3.812 8.516-8.515 8.516S3.48 17.09 3.48 12.387c0-2.632 1.194-4.989 3.072-6.552h.004z"/>
</svg>