<?xml version="1.0" encoding="utf-8"?>
<!-- Generator: Adobe Illustrator 28.2.0, SVG Export Plug-In . SVG Version: 6.00 Build 0)  -->
<svg version="1.1" id="Layer_1" xmlns="http://www.w3.org/2000/svg" xmlns:xlink="http://www.w3.org/1999/xlink" x="0px" y="0px"
	 viewBox="0 0 58 40" style="enable-background:new 0 0 58 40;" xml:space="preserve">
<style type="text/css">
	.st0{fill:#E2E5EC;}
	.st1{fill:#FFFFFF;}
	.st2{fill:#505050;}
</style>
<g>
	<path class="st0" d="M39.7627373,13.9181509C39.0757484,6.6083937,32.6688499,0.8799313,24.8675346,0.8799313
		c-8.2604198,0-14.9558458,6.4199476-14.9558458,14.3414593c0,0.7681084,0.0631828,1.5228148,0.1843376,2.2573519l0,0
		c-5.1940198,0.6205521-9.2277861,5.2137699-9.2277861,10.7860126c0,5.9943352,4.6705294,10.8553276,10.4321175,10.8553276
		h38.2415733c4.1931229,0,7.5898628-3.0741959,7.5898628-6.8679008c0-3.428875-2.7772064-6.2722569-6.4081039-6.784914l0,0
		c0-5.9965-4.6483574-11.5638676-10.4102097-11.5638676C40.1290092,13.9033957,39.9438667,13.9082689,39.7627373,13.9181509"/>
	<path class="st1" d="M34.1654472,13.9181509c-0.5880089-7.3097572-6.0097752-13.154911-12.6714077-12.6720343
		C17.303854,1.5498949,9.9118195,7.2998815,9.9118195,15.2213907c0,0.7681084,0.1843367,2.2573519,0.1843367,2.2573519
		c-4.8196015,0.4391518-9.2277851,5.2137699-9.2277851,10.7860126c0,5.9943352,3.9983687,10.8553276,8.9308453,10.8553276
		h32.7381897c3.5897522,0,6.4978638-3.0741959,6.4978638-6.8679008c0-3.428875-2.3775444-6.2722569-5.4858856-6.784914l0,0
		c0-5.9965-3.9796677-11.5638676-8.9120102-11.5638676C34.4790916,13.9033957,34.3206673,13.9082689,34.1654472,13.9181509
		c-2.6125069,0.1663742-4.9272633,1.6952801-6.4724884,4.0135508"/>
	<path class="st2" d="M49.5419769,40H11.3003902C5.0693493,40,0,34.7356415,0,28.2648182
		c0-5.658186,3.8635011-10.4583893,9.1219978-11.5200272c-0.0522442-0.5054684-0.0785942-1.0151672-0.0785942-1.5234127
		C9.0434036,6.8282928,16.142046,0,24.867485,0c3.9670105,0,7.7616997,1.4183801,10.6851387,3.9937799
		c2.7192917,2.3956072,4.4696236,5.5942659,4.9821472,9.0752401c2.7179832,0.21628,5.4131393,1.5619497,7.4962425,3.7663946
		c2.0829697,2.2041817,3.3481712,5.044775,3.5364037,7.8927727c1.676239,0.377697,3.1989441,1.2239132,4.3460884,2.4262772
		C57.2590637,28.5649128,58,30.375267,58,32.252121C58,36.5243149,54.2056999,40,49.5419769,40z M24.867485,1.7598543
		c-7.7678967,0-14.0875769,6.0387912-14.0875769,13.461524c0,0.7078018,0.0580492,1.4184456,0.1725159,2.1123009
		c0.039134,0.2374325-0.019371,0.480814-0.162015,0.6732979c-0.1425781,0.1926155-0.3568363,0.3175449-0.5927486,0.345705
		c-4.8236532,0.5762615-8.4611559,4.8374844-8.4611559,9.9121361c0,5.5004711,4.2903223,9.9753284,9.5638857,9.9753284h38.2415848
		c3.7062454,0,6.7215195-2.6861839,6.7215195-5.9880257c0-2.9156857-2.4330902-5.4577713-5.6595573-5.9133339
		c-0.4291687-0.0605469-0.7485008-0.4324284-0.7485008-0.8714657c0.0001297-2.6416321-1.1219711-5.3442097-3.0785408-7.4147358
		c-1.9484787-2.0619984-4.4951859-3.2472429-6.9910202-3.2544479c-2.6857643,0.1532869-5.2003822,1.493206-6.9023209,3.6786804
		c-0.2971573,0.3816624-0.8432045,0.4467049-1.2194138,0.1456852c-0.3764687-0.3011532-0.4407787-0.8544121-0.1437511-1.235878
		c1.8190784-2.3357859,4.4290524-3.854044,7.267046-4.2561979C37.7327766,6.5892744,31.9016857,1.7598543,24.867485,1.7598543z"/>
</g>
</svg>
