<svg xmlns="http://www.w3.org/2000/svg" x="0" y="0" viewBox="0 0 24 24" style="" xml:space="preserve">
<path fill="#111111" d="m20.8 6.9-4.7-4.7c-.1-.1-.2-.2-.4-.2H7.3c-.6 0-1.2.3-1.7.7-.4.5-.7 1.1-.7 1.8v2.8c0 .4.3.6.6.6s.6-.3.6-.6V4.5c0-.3.1-.7.4-.9.2-.2.5-.4.8-.3h6.9v3.1c0 .7.2 1.3.7 1.8.5.4 1.1.7 1.8.7h3.1v10.7c0 .3-.2.7-.4.9-.3.3-.6.4-.9.4H7.3c-.2 0-.4-.1-.6-.2-.2-.2-.4-.3-.5-.5-.1-.3-.5-.4-.8-.2-.3.1-.4.5-.2.8.2.4.5.7.9.9.3.2.8.3 1.2.3h11.2c.7 0 1.3-.3 1.8-.7.4-.5.7-1.1.7-1.8V7.3c0-.2-.1-.3-.2-.4zm-4.1.8c-.3 0-.7-.2-.9-.4-.3-.2-.4-.6-.4-.9V3.3h.1l4.3 4.3v.1h-3.1z"/>
<path fill="#111111" d="M8.374 16.674 9.7 18c.1.1.2.2.4.2s.4 0 .5-.2c.2-.3.2-.7 0-.9l-1.345-1.345A3.407 3.407 0 0 0 9.8 13.9c0-1.9-1.5-3.4-3.4-3.4C4.5 10.5 3 12 3 13.9c0 1.9 1.5 3.4 3.4 3.4.742 0 1.42-.234 1.974-.626zM4.2 13.9c0-1.2 1-2.2 2.2-2.2s2.2 1 2.2 2.2-1 2.2-2.2 2.2-2.2-1-2.2-2.2z"/>
</svg>