<svg xmlns="http://www.w3.org/2000/svg" x="0" y="0" viewBox="0 0 24 24" style="" xml:space="preserve">
<path fill="#111111" d="M12.712 22h-.008a1.29 1.29 0 0 1-.924-.391l-4.075-4.164-4.407 4.077-.002-.002-1.263-1.35v-.001l4.362-4.034-4.008-3.927A1.28 1.28 0 0 1 2 11.294a1.282 1.282 0 0 1 .378-.918l1.04-1.04c.26-.26.626-.391.983-.38l3.896.185 2.394-2.396-.722-.722c-.5-.502-.5-1.319 0-1.821l1.82-1.822c.245-.244.572-.38.92-.38h.002c.349 0 .676.136.92.383l7.993 7.997a1.29 1.29 0 0 1 0 1.823l-1.818 1.819a1.297 1.297 0 0 1-.922.382h-.002c-.348 0-.675-.137-.92-.384l-.708-.71-2.39 2.39.185 3.907c.02.357-.117.712-.373.971l-1.041 1.04a1.292 1.292 0 0 1-.921.382zM4.089 11.284 8.4 15.512l4.314 4.405.465-.466-.184-3.905c-.019-.357.118-.712.374-.97l2.96-2.961c.49-.49 1.35-.492 1.843 0l.71.71 1.033-1.033L12.71 4.08l-1.034 1.033.722.722c.5.502.501 1.318 0 1.821l-2.96 2.962c-.257.259-.62.398-.983.38l-3.895-.185-.471.471zm9.103 8.409v.005-.005zm1.658-4.24v.006-.007zm4.426-2.735.002.002-.002-.002zM8.122 9.316l-.003.003.002-.004zm4.192-5.633v.002-.002z"/>
</svg>