<svg xmlns="http://www.w3.org/2000/svg" xmlns:xlink="http://www.w3.org/1999/xlink" x="0px" y="0px" viewBox="0 0 24 24" style="enable-background:new 0 0 24 24;" xml:space="preserve">
<path fill="#333333" d="M19,2H5C3.3,2,2,3.3,2,5v14c0,1.7,1.3,3,3,3h14c1.7,0,3-1.3,3-3V5C22,3.3,20.7,2,19,2z M7,4.9c1.1,0,2,0.9,2,2
	c0,1-1,1.9-2,1.9S5.1,7.9,5.1,6.9C5.1,5.8,5.9,4.9,7,4.9z M19.9,19c-0.1,0.2-0.4,0.4-0.7,0.4H4.8c-0.3,0-0.6-0.2-0.7-0.5
	C4,18.6,4,18.4,4.2,18.1l3.2-4c0.3-0.3,0.8-0.4,1.1-0.1l1.4,1.2L13,11c0.2-0.2,0.3-0.3,0.6-0.3c0.3,0,0.4,0.1,0.6,0.3l5.6,7.2
	C20,18.4,20,18.7,19.9,19z"/>
</svg>
