<svg version="1.1" id="레이어_1" xmlns="http://www.w3.org/2000/svg" x="0" y="0" viewBox="0 0 24 24" style="" xml:space="preserve">
<path fill="#111111" fill-rule="evenodd" clip-rule="evenodd" d="M3.936 10.226c0-3.474 2.816-6.29 6.29-6.29s6.29 2.816 6.29 6.29-2.816 6.29-6.29 6.29-6.29-2.816-6.29-6.29zM10.226 2C5.683 2 2 5.683 2 10.226c0 4.543 3.683 8.226 8.226 8.226a8.192 8.192 0 0 0 5.121-1.788.965.965 0 0 0 .162.214l4.838 4.839a.968.968 0 0 0 1.369-1.37l-4.84-4.838a.965.965 0 0 0-.213-.163 8.192 8.192 0 0 0 1.788-5.12C18.452 5.682 14.77 2 10.226 2z"/>
</svg>