<svg xmlns="http://www.w3.org/2000/svg" version="1.1" viewBox="0 0 24 24">
    <ellipse fill="#f5f5f7" fill-opacity="0.8" cx="12.01752" cy="19.86825" rx="8.47462" ry="1.5835"/>
    <g>
        <g>
        <path fill="#aeb8c2" fill-rule="evenodd" d="M18.77962,15.21625l-2.99062-3.68063c-.1435-.17325-.35325-.27812-.57413-.27812h-6.43c-.22075,0-.4305.10488-.574.27812l-2.9905,3.68063v1.92288h13.55937v-1.92288h-.00012Z"/>
        <path fill="#f5f5f7" fill-rule="evenodd" d="M7.75413,6.507h8.49162c.27614,0,.5.22386.5.5v11.668c0,.27614-.22386.5-.5.5H7.75413c-.27614,0-.5-.22386-.5-.5V7.007c0-.27614.22386-.5.5-.5Z"/>
        <rect fill="#dce0e6" x="8.61013" y="7.75112" width="6.77962" height="3.61962" rx=".25" ry=".25"/>
        <path fill="#dce0e6" fill-rule="evenodd" d="M8.89288,12.72787h6.21413c.15616,0,.28275.12659.28275.28275s-.12659.28275-.28275.28275h-6.21413c-.15616,0-.28275-.12659-.28275-.28275s.12659-.28275.28275-.28275h0Z"/>
        <path fill="#dce0e6" fill-rule="evenodd" d="M8.89288,14.19825h6.21413c.15619,0,.28281.12662.28281.28281s-.12662.28281-.28281.28281h-6.21413c-.15619,0-.28281-.12662-.28281-.28281s.12662-.28281.28281-.28281Z"/>
        </g>
        <path fill="#dce0e6" fill-rule="evenodd" d="M18.752,19.636c-.09688.38387-.43713.67-.84188.67H6.08975c-.40475,0-.745-.28625-.84175-.67-.01845-.07315-.02777-.14831-.02775-.22375v-4.19587h3.28975c.36338,0,.65625.306.65625.6775v.005c0,.37138.29625.67125.65963.67125h4.34812c.36337,0,.65963-.30262.65963-.67412v-.0015c0-.3715.29288-.67825.65625-.67825h3.28975v4.19613c0,.07712-.00963.152-.02762.22363Z"/>
    </g>
    <g>
        <path fill="#dce0e6" fill-rule="evenodd" d="M19.18302,6.70975l-.85375.33125c-.06434.02502-.13679-.00686-.16181-.0712-.01027-.0264-.01126-.05551-.00282-.08255l.24212-.77588c-.32363-.368-.51362-.81675-.51362-1.301,0-1.24937,1.26475-2.26213,2.825-2.26213,1.55988,0,2.82475,1.01275,2.82475,2.26213s-1.26475,2.26213-2.82487,2.26213c-.566,0-1.093-.13325-1.535-.36275Z"/>
        <g>
        <ellipse fill="#fff" cx="21.83089" cy="4.867" rx=".35612" ry=".35188"/>
        <path fill="#fff" fill-rule="evenodd" d="M19.96139,5.17488h-.71225l.36225-.61575.35.61575ZM20.40652,4.55913h.62312v.61575h-.62312v-.61575Z"/>
        </g>
    </g>
</svg>