<svg version="1.1" id="레이어_1" xmlns="http://www.w3.org/2000/svg" x="0" y="0" viewBox="0 0 24 24" style="" xml:space="preserve">
<path fill="#111111" d="M11.019 2a.4.4 0 0 0-.37.245L9.58 4.794c-.047.11-.14.192-.252.236-.12.049-.236.107-.35.168a.406.406 0 0 1-.35.018L6.089 4.15a.4.4 0 0 0-.438.085L4.235 5.65a.4.4 0 0 0-.086.438l1.07 2.55c.046.108.042.23-.01.335a8.25 8.25 0 0 0-.178.379.416.416 0 0 1-.219.22L2.245 10.65A.4.4 0 0 0 2 11.02v1.961a.4.4 0 0 0 .245.37l2.568 1.079a.416.416 0 0 1 .22.218c.055.13.113.25.177.38a.402.402 0 0 1 .01.333l-1.07 2.552a.4.4 0 0 0 .085.438l1.415 1.415a.4.4 0 0 0 .438.086l2.56-1.075a.385.385 0 0 1 .317.006c.126.062.253.126.387.187a.423.423 0 0 1 .22.22l1.078 2.568a.4.4 0 0 0 .369.245h1.961a.4.4 0 0 0 .37-.245l1.082-2.576a.395.395 0 0 1 .207-.211c.124-.055.254-.111.38-.172.11-.054.238-.062.351-.014l2.542 1.067a.4.4 0 0 0 .438-.085l1.415-1.415a.4.4 0 0 0 .086-.438l-1.075-2.56a.39.39 0 0 1 .005-.317c.06-.131.126-.266.187-.397a.41.41 0 0 1 .212-.206l2.575-1.082A.4.4 0 0 0 22 12.98V11.02a.4.4 0 0 0-.245-.37L19.2 9.576c-.107-.044-.187-.133-.231-.24a4.533 4.533 0 0 0-.17-.357.413.413 0 0 1-.016-.351l1.067-2.542a.4.4 0 0 0-.085-.438L18.35 4.235a.4.4 0 0 0-.438-.086l-2.56 1.075a.39.39 0 0 1-.317-.005c-.131-.06-.266-.126-.397-.187a.41.41 0 0 1-.206-.212L13.35 2.246A.4.4 0 0 0 12.98 2H11.02zm.98 6.234c2.07 0 3.74 1.671 3.74 3.741s-1.67 3.74-3.74 3.74c-2.07 0-3.74-1.67-3.74-3.74 0-2.07 1.67-3.74 3.74-3.74z"/>
</svg>