<svg xmlns="http://www.w3.org/2000/svg" x="0" y="0" viewBox="0 0 24 24" style="" xml:space="preserve">
<style type="text/css">.st0 { fill: rgb(153, 153, 153); }</style>
<path class="st0" d="M13.094 22c-.28 0-.56-.109-.774-.326l-8.75-8.888c-.427-.434-.427-1.138 0-1.572l8.75-8.888c.428-.435 1.12-.435 1.547 0s.427 1.137 0 1.57L5.89 12l7.977 8.103c.427.434.427 1.137 0 1.571a1.082 1.082 0 0 1-.773.326z"/>
<path class="st0" d="M19.656 22c-.28 0-.56-.109-.773-.326l-8.75-8.888c-.427-.434-.427-1.138 0-1.572l8.75-8.888c.427-.435 1.12-.435 1.547 0s.427 1.137 0 1.57L12.453 12l7.977 8.103c.427.434.427 1.137 0 1.571a1.082 1.082 0 0 1-.774.326z"/>
</svg>