<svg xmlns="http://www.w3.org/2000/svg" version="1.1" viewBox="0 0 24 24">
<path fill="#dce0e6" d="M2.4 22.5V9.7h19.2L2.4 22.5z"/>
<path fill="#aeb8c2" d="M21.6 2.8h-3.8v-1c0-.3-.3-.6-.6-.6s-.6.3-.6.6v1h-3.9v-1c0-.3-.3-.6-.6-.6s-.6.3-.6.6v1H7.6v-1c0-.3-.3-.6-.6-.6s-.6.3-.6.6v1H2.6c-.2 0-.4.2-.4.4v19.4c0 .2.2.4.4.4h19.2c.2 0 .4-.2.4-.4V3.1c0-.2-.2-.4-.4-.4zm-15.4.7v1c-.8.3-1.3 1-1.3 1.8s.9 2 2 2 2-.9 2-2-.6-1.6-1.3-1.8v-1h3.9v1c-.8.3-1.3 1-1.3 1.8s.9 2 2 2 2-.9 2-2-.6-1.6-1.3-1.8v-1h3.9v1c-.8.3-1.3 1-1.3 1.8s.9 2 2 2 2-.9 2-2c0-.9-.6-1.6-1.3-1.8v-1h3.4v5.8H2.8V3.5h3.4zM6.8 7c.3 0 .6-.3.6-.6v-1c.3.2.5.6.5 1 0 .6-.5 1.2-1.2 1.2s-1.2-.5-1.2-1.2.2-.8.5-1v1c0 .3.3.6.6.6zM12 7c.3 0 .6-.3.6-.6v-1c.3.2.5.6.5 1 0 .6-.5 1.2-1.2 1.2s-1.2-.5-1.2-1.2.2-.8.5-1v1c0 .3.3.6.6.6zm5.2 0c.3 0 .6-.3.6-.6v-1c.3.2.6.6.6 1 0 .6-.5 1.2-1.2 1.2S16 7.1 16 6.4s.2-.8.5-1v1c0 .3.3.6.6.6zm4 15H2.8V10.1h18.4V22z"/>
<path fill="#aeb8c2" d="M11.5 15.6c.2.3.4.5.5.7.1.2.2.5.2.9 0 .7-.2 1.2-.6 1.8-.6.7-1.3 1-2.3 1s-1-.1-1.4-.4c-.4-.2-.8-.6-1.1-1-.2-.3-.3-.6-.3-1s.1-.7.4-.9c.2-.2.5-.3.9-.3s.8.2 1 .5c0 0 .1.2.2.3 0 .1.2.2.3.2.2 0 .3-.1.3-.4s-.1-.3-.3-.4c-.3-.2-.4-.3-.5-.4 0-.1-.1-.3-.1-.5s0-.4.2-.6c0 0 .2-.1.5-.2.1 0 .2-.2.2-.3 0-.2-.1-.3-.3-.3s-.2 0-.4.3c-.3.4-.6.6-1 .6s-.7-.1-.9-.4c-.2-.2-.4-.5-.4-.9 0-.6.3-1.1.9-1.5.6-.4 1.1-.6 1.7-.6s1.4.2 1.9.7c.6.5.9 1.1.9 1.8s0 .5-.1.7l-.2.3v.2h-.1z"/>
<path fill="#aeb8c2" d="M14.5 14.3h-.4c-.2 0-.4 0-.6-.2-.3-.2-.5-.5-.5-1s.1-.7.4-.9c.2-.2.6-.3 1-.3h1.3c1 0 1.4.5 1.4 1.5v4.9c0 .6-.2 1-.7 1.3-.2.1-.4.2-.6.2-.4 0-.7-.2-1-.5-.2-.2-.3-.6-.3-1v-4.1z"/>
</svg>