<svg version="1.1" id="레이어_1" xmlns="http://www.w3.org/2000/svg" x="0" y="0" viewBox="0 0 24 24" style="" xml:space="preserve">
<path fill="#111111" fill-rule="evenodd" clip-rule="evenodd" d="M10.63 14.074h2.74c.65 0 1.195-.553 1.221-1.264l.326-9.44c.026-.751-.533-1.37-1.221-1.37h-3.39c-.688 0-1.247.619-1.22 1.37l.324 9.44c.025.698.557 1.264 1.22 1.264zm-.04 2.646c-.416.25-.766.593-1.013 1.027-.247.421-.364.895-.364 1.396-.013.513.117 1 .364 1.435.247.434.584.777 1.013 1.04.416.25.91.382 1.39.382s.948-.132 1.376-.382c.43-.25.78-.606 1.04-1.04.26-.448.39-.935.39-1.435 0-.5-.13-.961-.39-1.396a2.895 2.895 0 0 0-1.04-1.027c-.441-.25-.883-.382-1.376-.382-.494 0-.961.132-1.39.382z"/>
</svg>