<svg xmlns="http://www.w3.org/2000/svg" x="0" y="0" viewBox="0 0 24 24" style="" xml:space="preserve">
<style type="text/css">.st0 { fill: rgb(15, 107, 41); }.st1 { fill-rule: evenodd; clip-rule: evenodd; fill: rgb(15, 107, 41); }</style>
<path class="st0" d="M10.423 16.367a.48.48 0 0 1-.68 0l-3.949-3.95a.48.48 0 0 1 0-.679l.864-.863a.48.48 0 0 1 .68 0l2.406 2.406a.48.48 0 0 0 .679.001l5.492-5.49a.48.48 0 0 1 .68 0l.863.863a.48.48 0 0 1 0 .679l-7.035 7.035z"/>
<path class="st1" d="M0 12C0 5.373 5.373 0 12 0s12 5.373 12 12-5.373 12-12 12S0 18.627 0 12zm12 9.818c-5.422 0-9.818-4.396-9.818-9.818S6.578 2.182 12 2.182 21.818 6.578 21.818 12 17.422 21.818 12 21.818z"/>
</svg>