<svg xmlns="http://www.w3.org/2000/svg" x="0" y="0" viewBox="0 0 24 24" style="" xml:space="preserve">
<style type="text/css">.st0 { fill: rgb(17, 17, 17); }</style>
<path class="st0" d="M12 22C6.486 22 2 17.514 2 12S6.486 2 12 2s10 4.486 10 10-4.486 10-10 10zm0-18.462c-4.666 0-8.462 3.796-8.462 8.462S7.334 20.462 12 20.462s8.462-3.796 8.462-8.462S16.666 3.538 12 3.538z"/>
<path class="st0" d="M12 16.615a.77.77 0 0 1-.77-.769V12.77H8.155a.77.77 0 0 1 0-1.54h3.077V8.155a.77.77 0 0 1 1.54 0v3.077h3.076a.77.77 0 1 1 0 1.54H12.77v3.076a.77.77 0 0 1-.77.77z"/>
</svg>