<svg version="1.1" id="레이어_1" xmlns="http://www.w3.org/2000/svg" x="0" y="0" viewBox="0 0 24 24" style="" xml:space="preserve">
<path fill="#DC0000" d="M16.734 9.079a1.09 1.09 0 1 0-1.488-1.597l-3.192 2.975L9.08 7.266a1.09 1.09 0 0 0-1.597 1.487l2.975 3.193-3.192 2.975a1.09 1.09 0 1 0 1.487 1.597l3.193-2.975 2.975 3.192c.412.44 1.102.465 1.543.054.44-.41.465-1.1.054-1.542l-2.975-3.192 3.192-2.975z"/>
<path fill="#DC0000" fill-rule="evenodd" clip-rule="evenodd" d="M0 12C0 5.373 5.373 0 12 0s12 5.373 12 12-5.373 12-12 12S0 18.627 0 12zm12 9.818c-5.422 0-9.818-4.396-9.818-9.818S6.578 2.182 12 2.182 21.818 6.578 21.818 12 17.422 21.818 12 21.818z"/>
</svg>