<svg xmlns="http://www.w3.org/2000/svg" version="1.1" viewBox="0 0 24 24">
  <path fill="#111" d="M14.6666024,7.9989585c0,.7363104.5968824,1.3331858,1.3332979,1.3331858h5.8808546c.0024219.0000586.0048438-.0000391.0072755,0h.7786718c.7364154,0,1.3332979-.5968754,1.3332979-1.3331858V1.3331858c0-.7363104-.5968824-1.3331858-1.3332979-1.3331858s-1.3332979.5968754-1.3332979,1.3331858v3.0878499C18.4500187.8824437,13.6581132-.8120525,9.0116881.3793256,4.2403786,1.6064315.7433819,5.5552142.1027489,10.439422c-.8603232,6.5599271,3.7773127,12.5964848,10.3380195,13.4566853.5301629.0695222,1.0590757.1038927,1.5850198.1038927,2.6267515,0,5.1674082-.858482,7.2854033-2.4851452,2.5419067-1.952402,4.1714583-4.7776592,4.5881822-7.9553704.0957824-.729905-.418599-1.399349-1.1487643-1.4951178-.7284466-.0947533-1.3995487.418383-1.4953311,1.1486004-.3240665,2.4715532-1.5914261,4.6689233-3.5686382,6.1873194-1.9770559,1.5185523-4.4266177,2.1762791-6.8991485,1.8521026-5.102798-.6689754-8.7097961-5.3641453-8.0406471-10.4662935.4982093-3.7988022,3.218087-6.870043,6.9282114-7.8242156,3.857509-.9897344,7.8435548.571615,10.0154276,3.7038927h-3.6905831c-.7364154,0-1.3332979.5968754-1.3332979,1.3331858Z"/>
</svg>