<svg width="20" height="20" viewBox="0 0 20 20" fill="none" xmlns="http://www.w3.org/2000/svg">
<path d="M0 10C0 15.5228 4.47715 20 10 20C15.5228 20 20 15.5228 20 10C20 4.47715 15.5228 0 10 0C4.47715 0 0 4.47715 0 10Z" fill="#256EF4"/>
<path fill-rule="evenodd" clip-rule="evenodd" d="M13.7514 6.33878C14.1161 6.58805 14.2098 7.08586 13.9605 7.45065L9.86052 13.4506C9.72622 13.6472 9.51139 13.7737 9.2744 13.7958C9.0374 13.818 8.80286 13.7334 8.63449 13.5652L6.13293 11.0652C5.82041 10.7528 5.82025 10.2463 6.13258 9.93379C6.4449 9.62127 6.95143 9.62111 7.26395 9.93343L9.08349 11.7518L12.6395 6.54794C12.8888 6.18315 13.3866 6.0895 13.7514 6.33878Z" fill="white"/>
</svg>
