<svg xmlns="http://www.w3.org/2000/svg" x="0" y="0" viewBox="0 0 24 24" style="" xml:space="preserve">
<style type="text/css">.st0 { fill: rgb(17, 17, 17); }</style>
<path class="st0" d="M19.076 22H4.923c-.776 0-1.508-.306-2.062-.86-.543-.53-.86-1.285-.86-2.064V4.923C2 3.31 3.31 2 4.923 2H12A.9.9 0 1 1 12 3.8H4.923c-.629.001-1.122.494-1.122 1.123v14.153c.001.296.12.58.326.781.223.223.503.34.797.34h14.153c.296 0 .581-.117.781-.323.226-.226.34-.498.34-.798V12a.9.9 0 0 1 .902-.9.9.9 0 0 1 .9.9v7.076c0 .777-.306 1.509-.86 2.064-.53.543-1.285.86-2.064.86z"/>
<path class="st0" d="m20.675 4.892-1.568-1.567c-.456-.456-1.227-.442-1.667 0L15.85 4.9l3.236 3.236 1.589-1.575c.22-.22.347-.53.344-.849-.004-.317-.13-.61-.345-.818z"/>
<polygon class="st0" points="15.063 5.69 7.112 13.653 7.112 16.888 10.347 16.888 18.298 8.926"/>
</svg>