<svg xmlns="http://www.w3.org/2000/svg" version="1.1" viewBox="0 0 24 24">
  <defs>
    <style>
    .st0 {fill: #f5f5f5;}
    .st1 {fill: #fafafa;}
    .st2 {fill: #d9d9d9;}
    </style>
  </defs>
  <ellipse class="st0" cx="12" cy="16.9052045" rx="12" ry="2.5947955"/>
  <g>
    <path class="st1" d="M15.6048746,10.6213142c0-.5949494.3727498-1.0861074.8351254-1.0864779h4.1849999v6.7231149c0,.7869641-.4949999,1.4319568-1.1062503,1.4319568H4.4812503c-.6112504,0-1.1062503-.6453631-1.1062503-1.4319568v-6.7231149h4.1849999c.4623749,0,.8351247.4904163.8351247,1.0853657v.0081552c0,.5949497.3768747,1.0753574.8388748,1.0753574h5.5320003c.4619994,0,.8388748-.4848563.8388748-1.0798057v-.0025948Z"/>
    <path class="st2" d="M16.9795532,5.0538556c-.255455-.3020187-.5452881-.5538556-.8893433-.5538556H7.90979c-.3440552,0-.6088715.2275831-.8706665.5285158l-3.8513489,4.3164765-.0002747.0003167v6.9080367c0,.891961.5804443,1.6174032,1.2938232,1.6174032h15.0373535c.7133789,0,1.2938232-.7254423,1.2938232-1.6174032v-6.9083987l-3.8329468-4.2910915ZM7.3390503,5.2489721c.1998138-.2322664.3157654-.378287.5707397-.378287h8.1804199c.2116699,0,.3856201.1604779.5894165.4036268l3.6325836,4.0706805h-3.8724518c-.5637817.000362-1.0224609.5708695-1.0224609,1.271696v.002896c0,.4847142-.2982788.8941329-.6513062.8941329h-5.5319824c-.3590698,0-.6513062-.3992828-.6513062-.8981149,0-.7004645-.4586792-1.27061-1.022644-1.27061h-3.8723831l3.6513748-4.0960203ZM20.4375,16.2533458c0,.6874326-.4123535,1.2467182-.9188232,1.2467182H4.4813232c-.5066528,0-.9188232-.5592856-.9188232-1.2467182v-6.5376684h3.9975586c.3510132,0,.647644.4119527.647644.9082508,0,.6950345.4603271,1.260474,1.0263062,1.260474h5.5319824c.565979,0,1.0263062-.5672495,1.0263062-1.264818v-.002896c0-.4879721.2966309-.9006489.647644-.9010109h3.9975586v6.5376684Z"/>
  </g>
</svg>