<svg version="1.1" id="레이어_1" xmlns="http://www.w3.org/2000/svg" x="0" y="0" viewBox="0 0 24 24" style="" xml:space="preserve">
<path fill="#111111" d="M18.842 13.579h-2.105v3.157h-3.158v2.105h3.157V22h2.105v-3.158H22v-2.105h-3.158v-3.158zM3.052 18.84h3.159v-2.105H4.106v-2.105H2v3.157c0 .58.471 1.052 1.053 1.052zm15.79-15.79c0-.58-.471-1.052-1.053-1.052h-3.158v2.105h2.105v2.106h2.105V3.054zM4.105 4.106h2.106V2H3.054C2.47 2 2 2.47 2 3.053V6.21h2.105V4.106zM2 8.315h2.105v4.211H2v-4.21zm14.737 0h2.105v3.159h-2.105V8.316zM8.316 2h4.21v2.105h-4.21V2zm0 14.737h3.158v2.105H8.316v-2.105z"/>
</svg>