<svg xmlns="http://www.w3.org/2000/svg" x="0" y="0" viewBox="0 0 24 24" style="" xml:space="preserve">
<g>
<path fill="#111111" d="M19.202 2H4.798C3.253 2 2 3.252 2 4.796v14.408c.004 1.542 1.254 2.792 2.798 2.796h14.404c1.544-.004 2.794-1.254 2.798-2.796V4.796C22 3.252 20.747 2 19.202 2zM3.12 4.796c0-.926.75-1.677 1.678-1.677h14.404c.927-.001 1.679.75 1.679 1.676v9.687l-4.342-4.34a1.69 1.69 0 0 0-2.372 0l-5.104 5.112a.574.574 0 0 1-.795 0l-.626-.626a1.704 1.704 0 0 0-2.372-.001L3.12 16.775V4.796zm17.76 14.408c0 .926-.75 1.677-1.678 1.677H4.798c-.927.001-1.679-.75-1.679-1.676v-.84l2.948-2.941a.56.56 0 0 1 .392-.157c.15 0 .293.055.403.157l.615.626a1.69 1.69 0 0 0 2.373 0l5.116-5.113a.56.56 0 0 1 .794 0l5.126 5.123-.005 3.144z"/>
<path fill="#111111" d="M7.593 10.395c-1.546 0-2.798-1.252-2.798-2.797s1.252-2.796 2.798-2.796 2.798 1.252 2.798 2.796-1.252 2.797-2.797 2.797zm0-4.474c-.928 0-1.68.752-1.68 1.678s.752 1.678 1.68 1.678a1.678 1.678 0 1 0 0-3.355z"/>
</g>
</svg>