<svg xmlns="http://www.w3.org/2000/svg" x="0" y="0" viewBox="0 0 24 24" style="" xml:space="preserve">
<style type="text/css">.st0 { fill: rgb(17, 17, 17); }</style>
<path fill="#111111" d="M20.1 14.876a.6.6 0 0 0-.6.6v2.55a.6.6 0 0 1-.6.6H5.1a.6.6 0 0 1-.6-.6v-2.55a.6.6 0 0 0-.6-.6H2.6a.6.6 0 0 0-.6.6v3.15c0 1.375 1.125 2.5 2.5 2.5h15c1.375 0 2.5-1.125 2.5-2.5v-3.15a.6.6 0 0 0-.6-.6h-1.3zM6.174 8.45a.6.6 0 0 0 0 .85l.915.915a.6.6 0 0 0 .847 0l1.79-1.782c.378-.377 1.023-.11 1.023.425v6.668a.6.6 0 0 0 .6.6h1.3a.6.6 0 0 0 .6-.6V8.858c0-.534.645-.802 1.023-.425l1.79 1.783a.6.6 0 0 0 .848-.001l.916-.915a.6.6 0 0 0 0-.849l-5.402-5.4a.6.6 0 0 0-.848 0L6.174 8.45z"/>
</svg>