<svg width="20" height="20" viewBox="0 0 20 20" fill="none" xmlns="http://www.w3.org/2000/svg">
<path d="M0 10C0 15.5228 4.47715 20 10 20C15.5228 20 20 15.5228 20 10C20 4.47715 15.5228 0 10 0C4.47715 0 0 4.47715 0 10Z" fill="#EB003B"/>
<path d="M12.4355 6.43359C12.748 6.12137 13.2541 6.12124 13.5664 6.43359C13.8788 6.74595 13.8786 7.25202 13.5664 7.56445L11.1309 10L13.5645 12.4336C13.8769 12.746 13.8769 13.252 13.5645 13.5645C13.252 13.8769 12.746 13.8769 12.4336 13.5645L10 11.1309L7.56641 13.5645C7.25399 13.8769 6.74797 13.8769 6.43555 13.5645C6.12313 13.252 6.12313 12.746 6.43555 12.4336L8.86914 10L6.43359 7.56445C6.12137 7.25202 6.12124 6.74595 6.43359 6.43359C6.74595 6.12124 7.25202 6.12137 7.56445 6.43359L10 8.86914L12.4355 6.43359Z" fill="white"/>
</svg>
