<?xml version="1.0" encoding="utf-8"?>
<!-- Generator: Adobe Illustrator 28.2.0, SVG Export Plug-In . SVG Version: 6.00 Build 0)  -->
<svg version="1.1" id="레이어_1" xmlns="http://www.w3.org/2000/svg" xmlns:xlink="http://www.w3.org/1999/xlink" x="0px"
	 y="0px" viewBox="0 0 24 24" style="enable-background:new 0 0 24 24;" xml:space="preserve">
<path d="M18.66667,22H5.33333C3.46438,22,2,20.53609,2,18.66667V5.33333C2,3.46438,3.46438,2,5.33333,2h13.33333
	C20.53609,2,22,3.46438,22,5.33333v13.33333C22,20.53609,20.53609,22,18.66667,22z M5.33333,2.95238
	c-1.35742,0-2.38095,1.02353-2.38095,2.38095v13.33333c0,1.35696,1.02353,2.38095,2.38095,2.38095h13.33333
	c1.35696,0,2.38095-1.02399,2.38095-2.38095V5.33333c0-1.35742-1.02399-2.38095-2.38095-2.38095H5.33333z M18.85733,19.52418
	H5.14267c-0.50084,0-0.96029-0.32924-1.11793-0.80171c-0.10975-0.32924-0.16741-0.6994,0.15067-1.17745l3.07152-3.84301
	c0.53757-0.5385,1.30813-0.58129,1.75642-0.13393l0.9175,0.78497l2.64834-3.58817c0.2553-0.26274,0.47154-0.47898,0.95424-0.47898
	c0.48363,0,0.6994,0.21624,0.90867,0.42504l5.37202,6.90197c0.26414,0.25856,0.33854,0.70127,0.17206,1.2035
	c-0.00744,0.02232-0.01581,0.04371-0.02604,0.06417C19.76228,19.25353,19.30283,19.52418,18.85733,19.52418z M19.52418,18.66667
	h0.0093H19.52418z M8.22117,14.2154c-0.08929,0-0.19066,0.0465-0.266,0.12091l-3.01153,3.77046
	c-0.07301,0.11254-0.07161,0.14695-0.01535,0.31436c0.03069,0.09301,0.13532,0.15067,0.21438,0.15067h13.71466
	c0.0865,0,0.1888-0.06138,0.23066-0.10603c0.03162-0.11812,0.02697-0.20089,0.00372-0.22415l-5.37202-6.90151
	c-0.10696-0.10184-0.10696-0.10184-0.19624-0.10184c-0.08836,0-0.08836,0-0.23438,0.14602l-2.90597,3.94624
	c-0.07859,0.10696-0.1981,0.17578-0.32924,0.19066c-0.13439,0.01395-0.26367-0.02604-0.36412-0.11161l-1.33324-1.14304
	C8.32115,14.23121,8.27325,14.2154,8.22117,14.2154z M7.2381,9.42839c-1.21745,0-2.28562-1.06817-2.28562-2.28562
	c0-1.3351,1.004-2.38095,2.28562-2.38095c1.31278,0,2.38095,1.06817,2.38095,2.38095
	C9.61905,8.33882,8.48438,9.42839,7.2381,9.42839z M7.2381,5.71419c-0.75986,0-1.33324,0.6143-1.33324,1.42857
	c0,0.68545,0.64779,1.33324,1.33324,1.33324c0.70778,0,1.42857-0.6729,1.42857-1.33324
	C8.66667,6.355,8.02586,5.71419,7.2381,5.71419z"/>
</svg>
