<?xml version="1.0" encoding="utf-8"?>
<!-- Generator: Adobe Illustrator 28.2.0, SVG Export Plug-In . SVG Version: 6.00 Build 0)  -->
<svg version="1.1" id="레이어_1" xmlns="http://www.w3.org/2000/svg" xmlns:xlink="http://www.w3.org/1999/xlink" x="0px"
	 y="0px" viewBox="0 0 24 24" style="enable-background:new 0 0 24 24;" xml:space="preserve">
<style type="text/css">
	.st0{fill:#DCE0E6;}
	.st1{fill:#AEB8C2;}
	.st2{fill:#F5F5F7;}
</style>
<g>
	<path class="st0" d="M22,5v14c0,1.7-1.3,3-3,3H5c-1.7,0-3-1.3-3-3V5c0-1.7,1.3-3,3-3h14C20.7,2,22,3.3,22,5z"/>
	<path class="st1" d="M4.1,18.9c0.092,0.289,0.388,0.5,0.7,0.5h14.4c0.3,0,0.61-0.164,0.7-0.4c0.105-0.253,0.071-0.551-0.1-0.8
		L14.2,11c-0.187-0.219-0.293-0.3-0.6-0.3c-0.315,0-0.401,0.089-0.6,0.3l-3.1,4.2L8.5,14l0,0c-0.314-0.291-0.841-0.232-1.1,0.1
		l-3.2,4C4.005,18.368,4.014,18.631,4.1,18.9z"/>
	<path class="st2" d="M9,6.9c0-1.1-0.9-2-2-2s-1.9,0.9-1.9,2c0,1,0.9,1.9,1.9,1.9S9,7.9,9,6.9z"/>
</g>
</svg>
