<svg xmlns="http://www.w3.org/2000/svg" x="0" y="0" viewBox="0 0 24 24" style="" xml:space="preserve">
<path fill="#111111" d="M20.333 3.667H8.667C7.747 3.667 7 4.413 7 5.333V7h1.667v-.833c0-.46.373-.834.833-.834h10c.46 0 .833.373.833.834v6.666c0 .46-.373.834-.833.834h-.833v1.666h1.666c.92 0 1.667-.746 1.667-1.666V5.333c0-.92-.746-1.666-1.667-1.666z"/>
<path fill="#111111" d="M15.333 8.667H3.667C2.747 8.667 2 9.413 2 10.333v8.334c0 .92.746 1.666 1.667 1.666h11.666c.92 0 1.667-.746 1.667-1.666v-8.334c0-.92-.746-1.666-1.667-1.666zM3.667 17.833v-6.666c0-.46.373-.834.833-.834h10c.46 0 .833.373.833.834v6.666c0 .46-.373.834-.833.834h-10a.833.833 0 0 1-.833-.834z"/>
</svg>