<svg xmlns="http://www.w3.org/2000/svg" x="0" y="0" viewBox="0 0 24 24" style="" xml:space="preserve">
<style type="text/css">.st0 { fill: rgb(153, 153, 153); }</style>
<path class="st0" d="M10.906 22c-.28 0-.56-.109-.773-.326-.427-.434-.427-1.137 0-1.57L18.11 12l-7.977-8.103c-.427-.434-.427-1.137 0-1.571s1.12-.435 1.547 0l8.75 8.888c.427.434.427 1.138 0 1.572l-8.75 8.888a1.082 1.082 0 0 1-.774.326z"/>
<path class="st0" d="M4.344 22c-.28 0-.56-.109-.774-.326-.427-.434-.427-1.137 0-1.57L11.547 12 3.57 3.897c-.427-.434-.427-1.137 0-1.571s1.12-.435 1.547 0l8.75 8.888c.427.434.427 1.138 0 1.572l-8.75 8.888a1.082 1.082 0 0 1-.773.326z"/>
</svg>