<svg version="1.1" id="Layer_1" xmlns="http://www.w3.org/2000/svg" x="0" y="0" viewBox="0 0 24 24" style="" xml:space="preserve">
<path fill="#333333" d="M12 0C5.4 0 0 5.4 0 12s5.4 12 12 12 12-5.4 12-12S18.6 0 12 0zm1.8 18.2c-.2.3-.5.6-.8.8-.3.2-.7.3-1.1.3-.4 0-.7-.1-1.1-.3-.3-.2-.6-.5-.8-.8-.2-.3-.3-.7-.3-1.1 0-.4.1-.7.3-1.1.2-.3.5-.6.8-.8.3-.2.7-.3 1.1-.3.4 0 .7.1 1.1.3.3.2.6.4.8.8.2.3.3.7.3 1.1.1.4-.1.8-.3 1.1zm.2-5.9c0 .5-.4 1-.9 1H11c-.5 0-.9-.4-.9-1l-.3-7.2c0-.6.4-1 .9-1h2.6c.5 0 1 .5.9 1l-.2 7.2z"/>
</svg>