<svg version="1.1" id="레이어_1" xmlns="http://www.w3.org/2000/svg" x="0" y="0" viewBox="0 0 24 24" style="" xml:space="preserve">
<path fill="#111111" fill-rule="evenodd" clip-rule="evenodd" d="M2.306 2.304c.256-.254.767-.381 1.15-.254l17.905 7.37c.384.127.64.508.64 1.017 0 .38-.256.762-.767 1.016l-7.29 2.542-2.43 7.243c-.127.38-.51.635-1.023.762-.383 0-.895-.254-1.023-.635L2.05 3.575c-.128-.509 0-1.017.256-1.27zM4.99 4.972l5.373 12.962 1.79-5.083c.128-.253.384-.507.64-.634l5.243-1.78L4.99 4.973z"/>
</svg>