<svg version="1.1" id="레이어_1" xmlns="http://www.w3.org/2000/svg" x="0" y="0" viewBox="0 0 24 24" style="" xml:space="preserve">
<path fill="#111111" d="M14.778 7.556H5.794l3.658-3.66a1.11 1.11 0 0 0-1.57-1.57L2.325 7.88a1.11 1.11 0 0 0-.24.362A1.11 1.11 0 0 0 2 8.66c.001.002 0 .004 0 .007L2 8.674c.002.142.03.284.086.418.056.135.137.258.24.36l5.555 5.556c.218.217.502.326.787.326.284 0 .568-.109.785-.326a1.11 1.11 0 0 0 0-1.571l-3.658-3.66h8.984c2.757 0 5 2.244 5 5 0 2.758-2.243 5.001-5 5.001h-3.89a1.11 1.11 0 1 0 0 2.222h3.89C18.76 22 22 18.76 22 14.778s-3.24-7.222-7.222-7.222z"/>
</svg>