<svg xmlns="http://www.w3.org/2000/svg" x="0" y="0" viewBox="0 0 24 24" style="" xml:space="preserve">
<path fill="#111111" fill-rule="evenodd" clip-rule="evenodd" d="M20.182 5.519C21.186 5.518 22 6.347 22 7.369v11.111c0 1.024-.814 1.853-1.818 1.853H3.818C2.814 20.333 2 19.504 2 18.481V5.52c0-1.024.814-1.853 1.818-1.853h5.455c1.018 0 1.666.44 2.317 1.276l.11.145.175.228.072.089c.08.1.091.113.055.114h8.18zm0 12.961V7.371h-8.187c-.653-.003-1.078-.315-1.535-.892-.042-.052-.142-.184-.215-.28l-.08-.104c-.34-.438-.543-.575-.892-.575H3.818V18.48h16.364zm-6.098-8.987L12 11.616 9.916 9.493l-1.286 1.31 2.084 2.123-2.084 2.123 1.286 1.308L12 14.235l2.084 2.123 1.286-1.31-2.084-2.122 2.084-2.123-1.286-1.31z"/>
</svg>