<svg version="1.1" id="Layer_1" xmlns="http://www.w3.org/2000/svg" x="0" y="0" viewBox="0 0 24 24" style="" xml:space="preserve">
<path fill="#111111" d="m19.58 7.161-4.838-4.676C14.42 2.16 13.935 2 13.452 2H6.677C5.226 2 3.935 3.29 3.935 4.742v14.516C3.935 20.71 5.225 22 6.677 22h10.646c1.451 0 2.742-1.29 2.742-2.742V8.452c0-.484-.162-.968-.484-1.29zM5.549 4.743c0-.645.484-1.13 1.13-1.13h6.29v2.582c0 1.451 1.29 2.741 2.742 2.741h2.742v10.323c0 .645-.484 1.13-1.13 1.13H6.678c-.645 0-1.129-.485-1.129-1.13V4.742zm9.033 1.452V4.742l2.581 2.58h-1.45c-.645 0-1.13-.483-1.13-1.128z"/>
</svg>