<svg xmlns="http://www.w3.org/2000/svg" x="0" y="0" viewBox="0 0 24 24" style="" xml:space="preserve">
<path fill="#111111" d="M20.462 6.697h-8.144L9.692 4.11a1.527 1.527 0 0 0-.498-.329 1.545 1.545 0 0 0-.59-.113H3.539c-.408 0-.799.16-1.087.443-.288.285-.45.67-.45 1.072v13.695c0 .386.156.756.434 1.03.277.272.653.426 1.045.426h17.067c.385 0 .755-.151 1.027-.42.272-.268.425-.631.426-1.01V8.212c0-.403-.162-.788-.45-1.072a1.55 1.55 0 0 0-1.088-.443zM3.538 5.182h5.067l1.538 1.515H3.538V5.182zm16.924 13.636H3.538V8.212h16.924v10.606z"/>
</svg>