<svg version="1.1" id="레이어_1" xmlns="http://www.w3.org/2000/svg" x="0" y="0" viewBox="0 0 142 58" style="" xml:space="preserve">
<path fill="#333333" d="M26.46 47.718H13.681c-4.822 0-8.308-.937-10.457-2.812S0 39.977 0 35.743V4.657h8.378v31.086c0 1.694.381 2.863 1.145 3.508.763.646 2.15.97 4.159.97h12.777v7.498z"/>
<path fill="#333333" d="M59.006 30.3c0 7.46-1.406 12.46-4.22 15-2.37 2.177-5.805 3.265-10.306 3.265-5.745 0-9.623-1.693-11.632-5.08-1.888-3.105-2.833-7.5-2.833-13.185 0-5.322.945-9.495 2.833-12.52 2.09-3.386 5.897-5.08 11.422-5.08s9.362 1.482 11.511 4.446 3.226 7.348 3.226 13.154zm-7.835 1.815V28.97c0-2.984-.431-5.262-1.295-6.834-.864-1.573-2.662-2.36-5.395-2.36-4.42 0-6.63 2.985-6.63 8.952v3.145c0 6.41 2.21 9.616 6.63 9.616 2.853 0 4.722-1.07 5.606-3.206.723-1.694 1.085-3.75 1.085-6.17z"/>
<path fill="#333333" d="m82.15 13.426 7.836-.483v33.203c0 3.83-1.075 6.764-3.225 8.8C84.612 56.982 81.428 58 77.21 58c-3.255 0-6.108-.645-8.559-1.935-1.286-.645-2.31-1.613-3.074-2.903-.764-1.29-1.146-2.823-1.146-4.597l7.293-.363c0 1.13.402 1.936 1.206 2.42.802.483 2.179.725 4.127.725 1.95 0 3.275-.484 3.978-1.451.703-.968 1.055-2.36 1.055-4.173l.301-5.202-8.437 4.537c-4.62 0-7.735-1.572-9.342-4.717-1.445-2.782-2.169-6.19-2.169-10.221.001-4.8.363-8.186 1.086-10.162.764-2.177 1.849-3.75 3.255-4.717 1.81-1.209 4.18-1.814 7.113-1.814h8.257zm0 20.261V20.503h-5.967c-2.25 0-3.797.766-4.64 2.298-.844 1.533-1.266 3.67-1.266 6.412 0 2.741.432 4.687 1.296 5.836.863 1.15 2.4 1.724 4.61 1.724l5.967-3.085z"/>
<path fill="#333333" d="M102.703 0c1.888 0 3.114.292 3.676.877s.843 1.814.843 3.69-.291 3.104-.874 3.688c-.583.585-1.809.877-3.677.877-1.869 0-3.094-.302-3.677-.907-.582-.605-.874-1.834-.874-3.69s.292-3.073.874-3.658c.583-.585 1.818-.877 3.707-.877zm3.857 47.718h-7.835V14.455h7.835v33.263z"/>
<path fill="#333333" d="M142 47.718h-7.835V25.643c0-1.975-.402-3.326-1.206-4.052-.804-.725-1.93-1.087-3.376-1.087l-7.052 2.963v24.252h-7.835V13.185h5.846l1.808 4.112 9.645-4.475c2.692 0 5.033.998 7.022 2.993 1.989 1.996 2.983 4.91 2.983 8.74v23.163z"/>
</svg>