<svg xmlns="http://www.w3.org/2000/svg" x="0" y="0" viewBox="0 0 800 150" style="" xml:space="preserve">
<style type="text/css">.st0 { fill: url("#SVGID_1_"); }</style>
<linearGradient id="SVGID_1_" gradientUnits="userSpaceOnUse" x1="299.1099854" y1="-11914.0195312" x2="1099.1099854" y2="-11914.0195312" gradientTransform="matrix(1 0 0 1 -299.1099854 11989.0195312)">
<stop offset="0" style="stop-color: rgb(17, 224, 174);"/>
<stop offset="0.29" style="stop-color: rgb(75, 173, 215);"/>
<stop offset="0.49" style="stop-color: rgb(0, 136, 239);"/>
<stop offset="0.92" style="stop-color: rgb(121, 90, 238);"/>
</linearGradient>
<path class="st0" d="M302.556 149.99h-37.852l-29.363-41.775h-32.418v41.775H167.68V.03h65.91c13.488 0 25.195 2.211 35.13 6.643s17.576 10.71 22.949 18.844c5.361 8.134 8.053 17.78 8.053 28.915s-2.722 20.75-8.155 28.824c-5.444 8.073-13.164 14.25-23.16 18.53l34.148 48.204zm-38.51-95.548c0-8.428-2.762-14.888-8.267-19.381-5.515-4.502-13.56-6.754-24.143-6.754h-28.715v52.282h28.715c10.584 0 18.628-2.282 24.142-6.856s8.266-10.994 8.266-19.29zm205.917 54.625c0 13.144-5.19 23.245-15.562 30.314s-25.487 10.61-45.36 10.61h-78.75V.03h74.4c18.567 0 32.813 3.5 42.75 10.497 9.935 7.009 14.893 16.501 14.893 28.49 0 7.281-1.78 13.782-5.332 19.492-3.56 5.72-8.518 10.212-14.893 13.498 8.702 2.718 15.511 7.252 20.45 13.61 4.927 6.36 7.395 14.18 7.395 23.46l.01-.011zM364.986 60.893h34.675c8.622 0 15.158-1.481 19.6-4.453 4.452-2.971 6.678-7.353 6.678-13.154s-2.226-10.152-6.678-13.053-10.988-4.34-19.6-4.34h-34.674v35.01-.01zm68.5 43.478c0-12.3-9.268-18.457-27.784-18.457h-40.716v36.704h40.716c9.187 0 16.118-1.481 20.783-4.453 4.664-2.971 7.001-7.566 7.001-13.783v-.009zM765.193.001v91.045L689.488 0h-29.15v149.99h34.807V58.945l75.927 91.045H800V.03h-34.807V0zM34.12 83.296V.03H-.001v83.621c0 35.163 28.473 66.35 62.753 66.35v-34.087c-16.725 0-28.644-15.822-28.644-32.607h-.001l.009-.01zM106.079.03v83.266c0 16.785-12.253 32.607-28.645 32.607v34.087c35.728 0 62.753-31.177 62.753-66.35V.03H106.08zm466.4 0v34.088c16.19 2.322 28.646 16.004 28.646 32.606v1.095H572.48v28.67h28.646v53.5h34.118V66.37c0-35.163-27.693-63.885-62.753-66.35h-.01v.01zm-77.404 66.35V150h34.12V96.5h28.644V67.83h-28.645v-1.096c0-16.592 12.456-30.284 28.645-32.606V.04c-35.07 2.465-62.764 31.177-62.764 66.35v-.01z"/>
</svg>