<svg xmlns="http://www.w3.org/2000/svg" x="0" y="0" viewBox="0 0 800 150" style="" xml:space="preserve">
<path fill="#212529" d="M303.266 149.99h-37.941l-29.432-41.775h-32.495v41.775h-35.325V.03h66.065c13.52 0 25.253 2.211 35.213 6.643s17.618 10.71 23.003 18.844c5.375 8.134 8.073 17.78 8.073 28.915s-2.728 20.75-8.174 28.824c-5.457 8.073-13.195 14.25-23.215 18.53l34.229 48.204zm-38.6-95.548c0-8.428-2.77-14.888-8.287-19.381-5.528-4.502-13.59-6.754-24.2-6.754h-28.782v52.282h28.783c10.61 0 18.672-2.282 24.2-6.856 5.527-4.574 8.285-10.994 8.285-19.29zm206.4 54.625c-.001 13.144-5.204 23.245-15.6 30.314s-25.547 10.61-45.466 10.61h-78.935V.03h74.574c18.61 0 32.89 3.5 42.849 10.497 9.958 7.009 14.928 16.501 14.928 28.49 0 7.281-1.785 13.782-5.345 19.492-3.57 5.72-8.54 10.212-14.93 13.498 8.723 2.718 15.549 7.252 20.498 13.61 4.94 6.36 7.415 14.18 7.415 23.46l.01-.011zM365.84 60.893h34.756c8.641 0 15.193-1.481 19.645-4.453 4.463-2.971 6.694-7.353 6.694-13.154s-2.231-10.152-6.694-13.053c-4.462-2.9-11.014-4.34-19.645-4.34h-34.756v35.01-.01zm68.661 43.478c0-12.3-9.29-18.457-27.85-18.457h-40.811v36.704h40.811c9.21 0 16.156-1.481 20.832-4.453 4.675-2.971 7.018-7.566 7.018-13.783v-.009zM766.988.001v91.045L691.106 0h-29.22v149.99h34.89V58.945l76.104 91.045h28.996V.03h-34.888V0zM34.198 83.296V.03H0v83.621c0 35.163 28.54 66.35 62.9 66.35v-34.087c-16.764 0-28.711-15.822-28.711-32.607h-.001l.009-.01zM106.329.03v83.266c0 16.785-12.281 32.607-28.711 32.607v34.087c35.81 0 62.9-31.177 62.9-66.35V.03H106.33zm467.496 0v34.088c16.227 2.322 28.712 16.004 28.712 32.606v1.095h-28.712v28.67h28.712v53.5h34.198V66.37c0-35.163-27.758-63.885-62.9-66.35h-.01v.01zm-77.587 66.35V150h34.2V96.5h28.711V67.83h-28.712v-1.096c0-16.592 12.485-30.284 28.712-32.606V.04c-35.152 2.465-62.91 31.177-62.91 66.35v-.01z"/>
</svg>